Coordinates
version=1
nRows=8
nColumns=36
inDegrees=yes

Units are S.I. units (second, meters, Newtons, ...)
If the header above contains a line with 'inDegrees', this indicates whether rotational values are in degrees (yes) or radians (no).

endheader
time	pelvis_tilt	pelvis_list	pelvis_rotation	pelvis_tx	pelvis_ty	pelvis_tz	hip_flexion_r	hip_adduction_r	hip_rotation_r	knee_angle_r	knee_angle_r_beta	ankle_angle_r	subtalar_angle_r	mtp_angle_r	hip_flexion_l	hip_adduction_l	hip_rotation_l	knee_angle_l	knee_angle_l_beta	ankle_angle_l	subtalar_angle_l	mtp_angle_l	lumbar_extension	lumbar_bending	lumbar_rotation	arm_flex_r	arm_add_r	arm_rot_r	elbow_flex_r	pro_sup_r	arm_flex_l	arm_add_l	arm_rot_l	elbow_flex_l	pro_sup_l
      1.44000000	     -6.29431693	     -4.80055688	      2.73704820	      0.39932372	      1.15884886	     -0.06675717	      6.78712076	      0.09851648	    -11.31962268	      1.06920273	      0.01866111	    -39.74391416	    -11.21764160	     -7.49999987	      7.09516040	     -7.67032645	      1.96730906	      7.38564177	      0.12890377	    -36.17727723	    -15.88293477	     -7.49999987	     -2.26358347	     -3.37011861	     -3.76594339	     13.37507586	    -18.60617641	    -34.27434342	     70.04078204	     54.63486851	      7.57219526	    -21.35611762	    -12.48702674	     91.30158322	     37.92390384
      1.44166670	     -6.47353296	     -4.90513082	      2.62015175	      0.39932395	      1.15928575	     -0.06625324	      7.33792440	      0.23723590	    -10.85507898	      1.06755362	      0.01863233	    -39.64426607	    -11.20757240	     -7.49999987	      7.40500645	     -7.78932184	      2.40648449	      7.10100656	      0.12393594	    -35.26664600	    -15.55404583	     -7.49999987	     -2.12418457	     -3.73476234	     -3.85879322	     13.19419873	    -18.16298651	    -33.49004439	     68.84279955	     55.20104525	      6.79450654	    -21.09571155	    -11.71819664	     91.89464557	     40.88388920
      1.44333330	     -6.40882979	     -4.98913746	      2.71549565	      0.39930135	      1.15638849	     -0.06676378	      7.52470123	      0.42693921	    -10.79984817	      1.07968574	      0.01884407	    -39.36598145	    -11.03445899	     -7.49999987	      7.80804151	     -7.82903698	      3.16633965	      7.20845181	      0.12581122	    -34.27281524	    -15.01890943	     -7.49999987	     -2.53367624	     -4.00611142	     -4.27933648	     13.16052133	    -17.22733898	    -32.95937519	     68.12409622	     55.09655671	      6.44287681	    -20.62244008	     -9.72858501	     92.29784631	     40.81563527
      1.44500000	     -6.35115229	     -4.95388798	      2.51690940	      0.39930376	      1.15617159	     -0.06608644	      7.75856196	      0.50236798	    -11.43884636	      1.11903790	      0.01953090	    -39.31579954	    -11.04428570	     -7.49999987	      7.95197744	     -7.82658343	      3.88098856	      6.79835738	      0.11865372	    -33.68509569	    -13.80607680	     -7.49999987	     -2.77085848	     -4.30816420	     -4.44045561	     12.68704369	    -16.16136468	    -32.50806391	     67.33811469	     55.02003834	      5.90214180	    -19.92891861	     -8.16546190	     92.43763782	     40.83354245
      1.44666670	     -6.23432075	     -5.02354580	      2.49298429	      0.39948413	      1.14938316	     -0.06555976	      7.88925525	      0.75853080	    -11.55767843	      1.01258218	      0.01767289	    -38.88249743	    -10.28791217	     -7.49999987	      8.29607376	     -7.93573047	      3.70795308	      6.44070675	      0.11241154	    -33.55669805	    -13.35306110	     -7.49999987	     -2.96616043	     -4.42800891	     -4.26867303	     11.77767176	    -15.30064828	    -32.52447758	     66.79194172	     55.21246413	      5.85200797	    -19.26819861	     -5.83973674	     91.71499730	     42.99570051
      1.44833330	     -6.15893602	     -5.06597744	      2.72443878	      0.40297816	      1.14299964	     -0.06934336	      8.21963637	      0.77149392	    -12.24582899	      1.15230379	      0.02011150	    -37.98587195	     -9.69549486	     -7.49999987	      8.48776487	     -7.94194332	      3.37193664	      5.82693003	      0.10169911	    -33.71245430	    -13.37674920	     -7.49999987	     -2.96005450	     -4.48455940	     -4.32751183	     10.97364323	    -15.00264589	    -33.00954502	     66.12900847	     55.44259128	      5.60871820	    -18.64924489	     -4.30855084	     91.42416989	     44.72552505
      1.45000000	     -6.00027354	     -4.89929821	      2.89680964	      0.40320949	      1.14514839	     -0.06944357	      8.15827311	      0.52262052	    -12.83113555	      1.04859082	      0.01830136	    -36.81359723	     -7.95080333	     -7.49999987	      8.47087287	     -7.72248596	      2.50505485	      5.12361765	      0.08942400	    -34.48907372	    -13.85683309	     -7.49999987	     -2.92959063	     -4.68756526	     -4.30950507	     10.04474097	    -14.47806695	    -32.55166053	     66.36139799	     54.11914590	      5.20673737	    -18.23784392	     -2.16556412	     91.25957581	     42.42198097
      1.45166670	     -5.89293822	     -4.95053525	      3.11482575	      0.40272264	      1.13863904	     -0.06873564	      8.29077940	      0.57870054	    -12.80078267	      1.03571090	      0.01807657	    -35.55085702	     -6.55011547	     -7.49999987	      8.53745868	     -7.84211699	      1.42614693	      4.50989246	      0.07871247	    -35.21002179	    -13.95607257	     -7.49999987	     -2.88563489	     -4.67040740	     -4.40883083	      9.46698937	    -13.95991216	    -32.73063493	     65.35629320	     54.17685224	      4.31102204	    -17.54348288	     -0.70794324	     91.17515763	     42.87854488
